PathFileType	4	(X/Y/Z)	Run_400 02
DataRate	CameraRate	NumFrames	NumMarkers	Units	OrigDataRate	OrigDataStartFrame	OrigNumFrames
100	100	4	42	mm	100	90	128
Frame#	Time	RASI			LPSI			RPSI			RTH1			RTH2			RTH3			LTH1			LTH2			LTH3			RTB1			RTB2			RTB3			LTB1			LTB2			LTB3			RCAL			RTOE			RMT5			LCAL			LTOE			LMT5			LACR			RACR			CLAV			C7			RUA1			RUA2			RUA3			RLEL			RMEL			LUA2			LUA3			LLEL			LMEL			RFAsuperior			RFAradius			RFAulna			LFAsuperior			LFAradius			LFAulna			LUA1			LASI		
		X1	Y1	Z1	X2	Y2	Z2	X3	Y3	Z3	X4	Y4	Z4	X5	Y5	Z5	X6	Y6	Z6	X7	Y7	Z7	X8	Y8	Z8	X9	Y9	Z9	X10	Y10	Z10	X11	Y11	Z11	X12	Y12	Z12	X13	Y13	Z13	X14	Y14	Z14	X15	Y15	Z15	X16	Y16	Z16	X17	Y17	Z17	X18	Y18	Z18	X19	Y19	Z19	X20	Y20	Z20	X21	Y21	Z21	X22	Y22	Z22	X23	Y23	Z23	X24	Y24	Z24	X25	Y25	Z25	X26	Y26	Z26	X27	Y27	Z27	X28	Y28	Z28	X29	Y29	Z29	X30	Y30	Z30	X31	Y31	Z31	X32	Y32	Z32	X33	Y33	Z33	X34	Y34	Z34	X35	Y35	Z35	X36	Y36	Z36	X37	Y37	Z37	X38	Y38	Z38	X39	Y39	Z39	X40	Y40	Z40	X41	Y41	Z41	X42	Y42	Z42	

90	  0.900000	1144.591929	1017.555657	-223.656185	988.719208	1099.778793	-403.338965	981.840507	1093.963059	-310.334239	1046.512206	847.041308	-180.380301	1034.441308	742.540027	-199.929369	908.158684	649.774843	-209.871877	1110.402996	913.733030	-544.721944	1232.774290	845.642819	-510.589774	1233.067081	709.385196	-500.060887	807.918265	399.868394	-285.061910	711.067893	338.742346	-243.451439	690.252849	265.757322	-308.291227	1275.955941	440.095738	-425.767435	1219.712902	397.361363	-469.050705	1210.046221	316.297104	-413.762327	549.747523	270.468396	-309.196692	685.230293	 78.550711	-334.966085	653.815283	 72.206056	-259.879888	1052.042466	224.244620	-395.833759	1306.870631	120.920968	-376.507684	1251.683956	134.516937	-462.563583	1144.619778	1574.638878	-496.145018	1219.718532	1536.380438	-179.033909	1226.103836	1485.804003	-326.041907	1121.746404	1588.460328	-323.254442	1200.931060	1399.345022	-96.683929	1138.782679	1385.137934	-68.774336	1161.400318	1319.328763	-61.083722	1142.920264	1240.143345	-37.834747	1073.747471	1233.268001	-106.095980	960.328786	1542.221469	-500.379002	920.713310	1497.914070	-570.650119	854.764035	1460.177002	-583.324557	847.830609	1442.659666	-491.321454	1210.607381	1279.318870	-84.377915	1290.875241	1351.703776	-209.972185	1324.044639	1286.927121	-202.280937	907.506859	1391.580921	-599.236830	1054.941569	1291.319056	-563.972926	1008.664433	1240.234549	-581.712835	1030.496500	1552.333163	-557.841998	1158.553375	1034.351501	-470.558353	
91	  0.910000	1147.705566	1021.233574	-223.664691	991.175158	1104.871340	-401.693839	985.350471	1099.291334	-308.515224	1046.046693	852.345402	-179.603212	1030.193129	748.857557	-200.832218	900.666243	660.544914	-211.021315	1111.827845	918.648707	-543.453953	1233.543841	847.871446	-509.213421	1230.092895	710.418049	-498.147040	793.540207	413.779535	-286.277267	695.883872	354.013684	-243.560977	672.519708	280.892168	-307.978060	1290.018552	439.380502	-427.078970	1238.704992	389.884987	-468.863448	1238.652981	309.079777	-413.140821	537.847561	294.509220	-308.282601	651.080618	 88.309717	-335.363865	617.689082	 83.129257	-261.987604	1092.375851	199.670631	-392.426575	1356.863334	117.681876	-373.012890	1300.283366	131.428177	-459.720373	1145.441619	1579.457696	-496.587071	1221.644540	1544.344313	-182.101445	1227.325337	1491.719185	-327.226504	1122.227577	1593.516811	-324.373060	1206.076916	1409.716442	-97.004907	1144.266853	1396.469189	-68.449004	1166.811064	1330.756939	-58.813938	1148.445831	1250.984606	-34.404483	1074.913894	1243.976629	-99.505407	962.582552	1550.188900	-498.838040	920.906400	1507.882179	-569.742083	854.074853	1469.115740	-581.759424	848.504058	1450.999455	-489.693810	1214.638602	1289.425463	-83.550862	1289.601457	1362.389861	-211.971395	1321.866115	1297.079356	-207.239923	907.249924	1401.597223	-598.361557	1056.709734	1302.158958	-565.069438	1011.036476	1250.596350	-582.790516	1031.714260	1559.420222	-558.140909	1161.149763	1039.705734	-468.920065	
92	  0.920000	1149.982786	1024.525297	-223.249584	993.159688	1108.643028	-400.261626	988.138026	1103.738650	-306.917743	1046.107742	856.917038	-178.624439	1027.865144	754.040663	-201.729104	896.571846	668.841792	-211.800256	1111.944729	919.546313	-541.606118	1232.386446	846.719660	-508.332732	1225.934795	708.916671	-496.938075	781.387052	425.207456	-287.935111	682.301605	368.391384	-244.259983	654.491321	296.449880	-308.281533	1301.689015	437.763239	-428.317335	1256.261137	382.093967	-468.393316	1265.552918	302.738524	-412.144281	524.801164	319.152604	-306.982124	616.813814	102.817407	-337.768949	582.249559	 98.222823	-265.835800	1132.983232	177.892282	-388.008346	1403.994677	118.250764	-370.846098	1346.057800	131.805584	-458.293651	1146.111763	1583.253908	-497.439827	1223.242218	1550.942317	-184.932764	1228.556565	1496.668100	-328.483375	1122.774114	1597.660754	-325.339987	1209.999829	1418.658424	-97.168604	1148.145601	1406.743622	-68.078124	1170.973455	1341.002829	-56.379269	1152.452229	1260.575696	-30.841197	1075.571157	1253.600553	-93.184043	964.064976	1555.494490	-498.473245	921.298702	1514.656264	-570.146749	854.232907	1474.384936	-581.719673	849.224976	1455.492718	-489.802437	1217.649021	1297.525498	-82.523147	1288.299854	1369.965433	-213.723160	1318.976459	1304.117557	-211.242053	908.349452	1408.295206	-598.798255	1060.076172	1310.840439	-566.647231	1015.248679	1258.602218	-584.617847	1032.612302	1563.914473	-558.914667	1163.277959	1043.742397	-467.501298	
93	  0.930000	1151.507959	1027.587822	-222.446250	994.633567	1111.058291	-399.062880	989.948636	1107.112314	-305.566570	1046.713636	860.465292	-177.842519	1027.541998	757.664964	-203.056463	896.162789	673.949955	-212.036233	1111.254811	917.399217	-539.464657	1229.732326	842.758272	-508.084676	1220.989981	705.409364	-496.613191	770.666762	434.167830	-289.675687	669.339832	382.337890	-245.266722	635.954869	312.932654	-309.118094	1310.499230	435.444472	-428.696334	1272.034760	374.440528	-467.606645	1289.842728	297.493307	-410.623175	509.414551	344.338104	-304.800521	583.974234	122.340333	-342.315977	549.805032	117.672164	-270.817735	1172.485676	159.558907	-383.555229	1447.297187	122.827442	-369.505593	1387.984926	135.617238	-457.670101	1146.735417	1586.033125	-498.715144	1224.632410	1556.121107	-187.249762	1229.796705	1500.629025	-329.805532	1123.462784	1600.902184	-326.303336	1212.525720	1426.046871	-97.088147	1150.740272	1415.441972	-67.482892	1173.802634	1349.650574	-53.856334	1154.612360	1268.691141	-27.231668	1075.785647	1262.224308	-87.541823	964.654313	1557.875176	-499.382167	922.053222	1517.759850	-571.754179	855.247936	1476.088225	-583.196042	850.309784	1456.343086	-491.486942	1219.266726	1303.530507	-81.308237	1286.986693	1374.183979	-215.247137	1315.922572	1307.743889	-213.941656	910.911688	1411.656346	-600.562712	1065.006797	1317.366522	-568.688440	1021.282446	1264.275675	-586.993868	1033.234864	1565.856278	-559.512210	1164.894791	1046.421377	-466.320145	
